<svg xmlns="http://www.w3.org/2000/svg" viewBox="0 0 230 44" role="img" aria-label="BlogsPro">
  <title>BlogsPro</title>
  <g fill="#F1F5F9">
    <!-- B -->
    <path fill-rule="evenodd" d="M4 8h11c4 0 6 2 6 5 0 2-1 3-3 4 2 1 3 2 3 5 0 4-3 6-8 6H4V8zm5 4v4h5c1 0 2 0 2-2 0-1-1-2-2-2H9zm0 8v4h5c2 0 3-1 3-2 0-2-1-2-3-2H9z"/>
    <!-- L -->
    <path d="M24 8h5v16h11v4H24V8z"/>
    <!-- O -->
    <path fill-rule="evenodd" d="M42 8h11c5 0 8 3 8 8v4c0 5-3 8-8 8H42c-5 0-8-3-8-8v-4c0-5 3-8 8-8zm0 5v10h11c2 0 3-1 3-3v-4c0-2-1-3-3-3H42z"/>
    <!-- G -->
    <path fill-rule="evenodd" d="M65 8h11c5 0 8 3 8 8v2h-5v-2c0-2-1-3-3-3H65c-2 0-3 1-3 3v4c0 2 1 3 3 3h11c2 0 3-1 3-3v-1h-7v-4h12v5c0 5-3 8-8 8H65c-5 0-8-3-8-8v-4c0-5 3-8 8-8z"/>
    <!-- S -->
    <path d="M87 16c0-5 3-8 8-8h11v4H95c-2 0-3 1-3 3 0 1 1 2 3 2h5c5 0 8 2 8 6v1c0 3-2 6-7 6H89v-4h12c2 0 2-1 2-2 0-2-1-2-3-2h-5c-5 0-8-2-8-6z"/>
  </g>

  <g fill="#C9A84C">
    <!-- P -->
    <path fill-rule="evenodd" d="M114 8h12c5 0 8 3 8 8 0 5-3 8-8 8h-7v6h-5V8zm5 4v8h7c2 0 3-1 3-4s-1-4-3-4h-7z"/>
    <!-- R -->
    <path fill-rule="evenodd" d="M138 8h12c5 0 8 3 8 8 0 3-2 6-4 7l4 7h-6l-4-6h-5v6h-5V8zm5 4v8h7c2 0 3-1 3-4s-1-4-3-4h-7z"/>
    <!-- O -->
    <path fill-rule="evenodd" d="M164 8h11c5 0 8 3 8 8v4c0 5-3 8-8 8h-11c-5 0-8-3-8-8v-4c0-5 3-8 8-8zm0 5v10h11c2 0 3-1 3-3v-4c0-2-1-3-3-3h-11z"/>
  </g>

  <rect x="4" y="34" width="118" height="2" rx="1" fill="#C9A84C"/>
</svg>
